PathFileType	4	(X/Y/Z)	AB12\squats_1.trc
DataRate	CameraRate	NumFrames	NumMarkers	Units	OrigDataRate	OrigDataStartFrame	OrigNumFrames
200.000000	200.000000	4	35	mm	200.000000	266	304
Frame#	Time	C7			LSHO			STRN			LASI			RASI			LPSI			RPSI			LGTR			RGTR			LTHC			LTHL			LTHR			LKNE			LMKNE			LSHC			LSHL			LSHR			LANK			LMANK			LMT1			LMT5			LCAL			RTHC			RTHL			RTHR			RKNE			RMKNE			RSHC			RSHL			RSHR			RANK			RMANK			RMT1			RMT5			RCAL			
		X1	Y1	Z1	X2	Y2	Z2	X3	Y3	Z3	X4	Y4	Z4	X5	Y5	Z5	X6	Y6	Z6	X7	Y7	Z7	X8	Y8	Z8	X9	Y9	Z9	X10	Y10	Z10	X11	Y11	Z11	X12	Y12	Z12	X13	Y13	Z13	X14	Y14	Z14	X15	Y15	Z15	X16	Y16	Z16	X17	Y17	Z17	X18	Y18	Z18	X19	Y19	Z19	X20	Y20	Z20	X21	Y21	Z21	X22	Y22	Z22	X23	Y23	Z23	X24	Y24	Z24	X25	Y25	Z25	X26	Y26	Z26	X27	Y27	Z27	X28	Y28	Z28	X29	Y29	Z29	X30	Y30	Z30	X31	Y31	Z31	X32	Y32	Z32	X33	Y33	Z33	X34	Y34	Z34	X35	Y35	Z35	

267	22.32	-3507.044153020868	1361.084228113539	2478.198387520105	-3562.671276878122	1322.717891828026	2601.237893990562	-3611.179475346379	1237.124676823759	2479.078665110645	-3451.930563235162	912.5074650424378	2635.497036526636	-3457.958171869392	914.3733339255019	2352.350427619409	-3265.281933031589	1000.48588263332	2522.106695018549	-3264.11492422602	992.7253571993945	2432.432191545759	-3332.358033411786	897.1584417993063	2698.565480635478	-3366.796075874164	858.1889116533268	2282.296586936777	-3440.285894445326	666.8959508531706	2707.110377872296	-3563.442718435992	617.7461645551659	2646.276607875108	-3421.638291067282	528.0690515025715	2611.27038909421	-3521.434099989109	460.2606606424812	2704.664692505956	-3540.062390951241	449.716556994169	2574.636980972974	-3459.214208556646	296.4314075329877	2718.803201511493	-3489.954039508121	202.4533793980178	2675.383007524142	-3393.825761911498	197.7870345352632	2649.550089821382	-3406.809823840862	86.82075015456321	2707.22665761356	-3422.071415562616	79.55931525466801	2620.187895300257	-3545.820408862826	47.99620303447356	2664.036308761626	-3506.801319249551	41.69898184628111	2747.559094579813	-3330.93978230011	63.11718633930519	2673.79241681724	-3438.960389614878	513.3945574824389	2405.328866022336	-3431.530284821221	642.1331065577376	2302.006246254672	-3565.303647356007	626.3180589886897	2371.3101485143	-3516.788324933187	453.8595510067068	2316.815812885101	-3532.501238481596	425.7152596055141	2442.087846621089	-3379.773530772005	181.7287844533057	2355.240357905618	-3443.757909969032	295.183007975519	2302.40512515193	-3482.824779216112	200.2689594466401	2340.637627392503	-3390.664454271071	91.48948129212768	2301.666396314272	-3413.518960418786	81.604904340575	2386.233267903166	-3529.052935299925	52.77395717751642	2341.043318466134	-3493.718070252528	49.64186842212781	2267.580674331217	-3321.688845930889	69.01733149392851	2347.052497794532	
268	22.325	-3506.61075455986	1365.78394186418	2478.251333786785	-3562.265072201582	1327.476533839634	2601.303424487395	-3610.941957311731	1242.032065444153	2479.091628784246	-3453.248051638518	916.4333829935629	2635.589212584508	-3459.00109926722	918.2725460362381	2352.459675436898	-3266.479245769571	1004.201225628211	2522.310775999612	-3265.261863642426	996.4453950347837	2432.660054181318	-3333.596782639852	900.7899795615737	2698.581139117441	-3367.796930452363	861.9716256592795	2282.628939164469	-3439.732562887407	669.3976020644541	2706.867503679994	-3562.147209234604	618.6908201515499	2645.692376672304	-3419.246453658885	530.6580560184813	2610.811149254091	-3518.454355573001	461.514474576435	2703.966328252388	-3536.979846558514	450.8637573288405	2573.96207620762	-3457.280074150318	297.02837438528	2718.463312657328	-3488.810669327775	203.2530394455331	2675.185826906958	-3392.699276098603	197.7308347958315	2649.436360501213	-3406.741358849172	86.88165708044221	2707.281353339711	-3422.022341628737	79.62264587021305	2620.238864813174	-3545.810763743074	48.00579494157266	2664.027456106196	-3506.808704233699	41.71272057923314	2747.554873711159	-3330.916256789879	63.10480708198637	2673.837938967295	-3436.278672172896	516.0039700661553	2405.836873101573	-3430.59706709353	644.9199078363753	2302.320494948561	-3564.041649506845	627.3534679881253	2371.843204418257	-3513.677093837952	455.254834506233	2317.29054206784	-3529.254999764369	427.0670727699322	2442.562381306325	-3378.762783528386	181.6875158418724	2355.224294345375	-3441.80623668364	295.7742385977228	2302.611856314749	-3481.629140761474	201.1136975387221	2340.820002349139	-3390.543410733462	91.54169612761129	2301.618898576732	-3413.425696510408	81.6710455277251	2386.180096296933	-3529.054951218814	52.81025501190362	2341.044104161002	-3493.714262661141	49.64941299094991	2267.578913801906	-3321.674345428326	69.02374091228052	2347.039044005681	
269	22.33	-3506.183236945765	1370.398480444911	2478.300703448026	-3561.864669089402	1332.149829345172	2601.365341391629	-3610.703257015233	1246.862433791689	2479.100104262052	-3454.576939457753	920.2898059121151	2635.683706167349	-3460.049999886911	922.1138229020058	2352.569775246629	-3267.685267218503	1007.842516630703	2522.521585217095	-3266.413340764877	1000.091905432744	2432.896209450746	-3334.841681762934	904.3472882300059	2698.599631975177	-3368.789047553169	865.6849125499585	2282.968076050121	-3439.161966475085	671.8528719737939	2706.627340363444	-3560.814456319692	619.5932093304679	2645.109297054157	-3416.842867271353	533.2292278443692	2610.348525805179	-3515.43581650115	462.7560990742701	2703.273297990456	-3533.861817011353	451.9906083713238	2573.287797227376	-3455.31873248308	297.618227695285	2718.124368112058	-3487.648999291533	204.0539841572628	2674.989663528037	-3391.560811115993	197.6658726372922	2649.323649617521	-3406.674097407053	86.94857020451292	2707.335718930934	-3421.972425691862	79.68902630964475	2620.290668695917	-3545.801980326089	48.01507611747722	2664.018781484053	-3506.817583760484	41.72771492276108	2747.550188297063	-3330.894622483714	63.09505100600795	2673.881339669241	-3433.582700836634	518.5948741451512	2406.339094171803	-3429.640860594434	647.6645928919371	2302.628441501917	-3562.744725707201	628.35104760581	2372.346935186153	-3510.526867437673	456.6368089974776	2317.73564276185	-3525.98095239338	428.4024975690166	2443.0115073324	-3377.745788956955	181.6436356220598	2355.196533450511	-3439.836281302775	296.3547588148334	2302.797937699118	-3480.414750969154	201.9580472253079	2340.991164697489	-3390.42643407	91.59840372001501	2301.56431233016	-3413.333415227838	81.74467820976004	2386.120030258516	-3529.055373393584	52.8425625738854	2341.044292218136	-3493.71015528701	49.65586180480032	2267.57648545037	-3321.659132733776	69.033931782595	2347.024922322214	
270	22.335	-3505.759285013974	1374.924338660006	2478.346743195525	-3561.467767895899	1336.734306800437	2601.423898699675	-3610.462947416248	1251.612613249954	2479.10456068342	-3455.917720219886	924.073105706466	2635.780250517481	-3461.106838493698	925.8938905562929	2352.680673001919	-3268.900514790473	1011.406803374344	2522.738409068773	-3267.570506027974	1003.661895825271	2433.140424672856	-3336.092803217814	907.8283085562366	2698.621330246092	-3369.773764962118	869.3253242241226	2283.313394856988	-3438.57325099514	674.2593172602753	2706.390094268775	-3559.44226233779	620.4511238320848	2644.528907659058	-3414.425398992253	535.781582680534	2609.883146381171	-3512.376634566718	463.983959034889	2702.586659248948	-3530.705397155555	453.0960934915855	2572.615366583525	-3453.328152331265	298.2005314627846	2717.787120266186	-3486.46729707328	204.8559536844482	2674.795245872506	-3390.409137960473	197.5919437072532	2649.212326484786	-3406.606757144645	87.0208916424928	2707.389953305124	-3421.920592608264	79.7585238083113	2620.343814717232	-3545.793620318953	48.02453436044924	2664.010224961434	-3506.827817871863	41.74398342966705	2747.545059006694	-3330.874394626468	63.08756407014921	2673.922851680061	-3430.872318270057	521.1649424785276	2406.833925592885	-3428.661924121506	650.3656390251449	2302.929160473077	-3561.412198657614	629.3086686691819	2372.819781193912	-3507.337148536284	458.0041481312936	2318.15045882617	-3522.678827197565	429.7199223095748	2443.434363537601	-3376.722014807575	181.5965850460019	2355.157012703529	-3437.847495199211	296.9237751050156	2302.962838270275	-3479.180881405819	202.8014868697444	2341.15033271703	-3390.31285028603	91.65952943535284	2301.502633804905	-3413.241363945904	81.82576076769176	2386.052636976519	-3529.053827598078	52.87108876955705	2341.043665616106	-3493.705683182231	49.66121555340029	2267.573296570285	-3321.643251258729	69.04757349205701	2347.009997624932	
